<mxfile host="app.diagrams.net" modified="2020-11-19T07:46:50.284Z" agent="5.0 (Windows NT 10.0; Win64; x64) AppleWebKit/537.36 (KHTML, like Gecko) Chrome/76.0.3809.132 Safari/537.36" etag="l1E6hyAAVR837BJ5c__S" version="13.8.8" type="github">
  <diagram id="0gKif1lKGUEX-Oc9mhnf" name="Page-1">
    <mxGraphModel dx="1422" dy="667" grid="1" gridSize="10" guides="1" tooltips="1" connect="1" arrows="1" fold="1" page="1" pageScale="1" pageWidth="827" pageHeight="1169" math="0" shadow="0">
      <root>
        <mxCell id="0" />
        <mxCell id="1" parent="0" />
        <mxCell id="11oFcdoYTNU60L-B-zhg-1" value="" style="rounded=0;whiteSpace=wrap;html=1;" parent="1" vertex="1">
          <mxGeometry x="224" y="110" width="246" height="240" as="geometry" />
        </mxCell>
        <mxCell id="11oFcdoYTNU60L-B-zhg-4" value="&lt;h1&gt;Account&lt;/h1&gt;" style="text;html=1;fillColor=none;spacing=5;spacingTop=-20;whiteSpace=wrap;overflow=hidden;rounded=0;strokeColor=#000000;" parent="1" vertex="1">
          <mxGeometry x="224" y="110" width="246" height="50" as="geometry" />
        </mxCell>
        <mxCell id="11oFcdoYTNU60L-B-zhg-5" value="&lt;font style=&quot;font-size: 15px&quot;&gt;know username&lt;br&gt;know balance&lt;br&gt;know card_id&lt;br&gt;know password&lt;br&gt;know register_date&lt;br&gt;know account_type&lt;br&gt;&lt;/font&gt;" style="html=1;strokeColor=#000000;align=left;" parent="1" vertex="1">
          <mxGeometry x="224" y="160" width="146" height="190" as="geometry" />
        </mxCell>
        <mxCell id="11oFcdoYTNU60L-B-zhg-6" value="Transaction&lt;br&gt;&lt;br&gt;BalanceInuqiry" style="text;html=1;strokeColor=none;fillColor=none;align=left;verticalAlign=middle;whiteSpace=wrap;rounded=0;" parent="1" vertex="1">
          <mxGeometry x="370" y="160" width="100" height="90" as="geometry" />
        </mxCell>
        <mxCell id="11oFcdoYTNU60L-B-zhg-7" value="" style="rounded=0;whiteSpace=wrap;html=1;" parent="1" vertex="1">
          <mxGeometry x="510" y="110" width="246" height="240" as="geometry" />
        </mxCell>
        <mxCell id="11oFcdoYTNU60L-B-zhg-8" value="&lt;h1&gt;Transaction&lt;/h1&gt;" style="text;html=1;fillColor=none;spacing=5;spacingTop=-20;whiteSpace=wrap;overflow=hidden;rounded=0;strokeColor=#000000;" parent="1" vertex="1">
          <mxGeometry x="510" y="110" width="246" height="50" as="geometry" />
        </mxCell>
        <mxCell id="11oFcdoYTNU60L-B-zhg-9" value="&lt;font style=&quot;font-size: 15px&quot;&gt;know date&lt;br&gt;know amount&lt;br&gt;know operation&lt;br&gt;know account&lt;br&gt;&lt;br&gt;&lt;/font&gt;" style="html=1;strokeColor=#000000;align=left;" parent="1" vertex="1">
          <mxGeometry x="510" y="160" width="146" height="190" as="geometry" />
        </mxCell>
        <mxCell id="11oFcdoYTNU60L-B-zhg-10" value="sub : WithDrawal&lt;br&gt;&lt;br&gt;sub : Deposite&lt;br&gt;&lt;br&gt;sub : Transfer&lt;br&gt;&lt;br&gt;Account" style="text;html=1;strokeColor=none;fillColor=none;align=left;verticalAlign=middle;whiteSpace=wrap;rounded=0;" parent="1" vertex="1">
          <mxGeometry x="656" y="160" width="100" height="130" as="geometry" />
        </mxCell>
        <mxCell id="11oFcdoYTNU60L-B-zhg-11" value="" style="rounded=0;whiteSpace=wrap;html=1;" parent="1" vertex="1">
          <mxGeometry x="510" y="370" width="246" height="240" as="geometry" />
        </mxCell>
        <mxCell id="11oFcdoYTNU60L-B-zhg-12" value="&lt;h1&gt;Deposite&lt;/h1&gt;" style="text;html=1;fillColor=none;spacing=5;spacingTop=-20;whiteSpace=wrap;overflow=hidden;rounded=0;strokeColor=#000000;" parent="1" vertex="1">
          <mxGeometry x="510" y="370" width="246" height="50" as="geometry" />
        </mxCell>
        <mxCell id="11oFcdoYTNU60L-B-zhg-13" value="&lt;font style=&quot;font-size: 15px&quot;&gt;can deposite&lt;br&gt;&lt;/font&gt;" style="html=1;strokeColor=#000000;align=left;" parent="1" vertex="1">
          <mxGeometry x="510" y="420" width="100" height="190" as="geometry" />
        </mxCell>
        <mxCell id="11oFcdoYTNU60L-B-zhg-14" value="&lt;div style=&quot;text-align: left&quot;&gt;&lt;span&gt;super : Transaction&lt;/span&gt;&lt;/div&gt;&lt;div style=&quot;text-align: left&quot;&gt;&lt;br&gt;&lt;/div&gt;&lt;div style=&quot;text-align: left&quot;&gt;&lt;span&gt;Account&lt;/span&gt;&lt;/div&gt;" style="text;html=1;strokeColor=none;fillColor=none;align=center;verticalAlign=middle;whiteSpace=wrap;rounded=0;" parent="1" vertex="1">
          <mxGeometry x="590" y="420" width="166" height="140" as="geometry" />
        </mxCell>
        <mxCell id="11oFcdoYTNU60L-B-zhg-18" value="" style="rounded=0;whiteSpace=wrap;html=1;" parent="1" vertex="1">
          <mxGeometry x="210" y="370" width="246" height="240" as="geometry" />
        </mxCell>
        <mxCell id="11oFcdoYTNU60L-B-zhg-19" value="&lt;h1&gt;WithDrawal&lt;/h1&gt;" style="text;html=1;fillColor=none;spacing=5;spacingTop=-20;whiteSpace=wrap;overflow=hidden;rounded=0;strokeColor=#000000;" parent="1" vertex="1">
          <mxGeometry x="210" y="370" width="246" height="50" as="geometry" />
        </mxCell>
        <mxCell id="11oFcdoYTNU60L-B-zhg-20" value="&lt;font style=&quot;font-size: 15px&quot;&gt;can withdraw&lt;br&gt;&lt;/font&gt;" style="html=1;strokeColor=#000000;align=left;" parent="1" vertex="1">
          <mxGeometry x="210" y="420" width="100" height="190" as="geometry" />
        </mxCell>
        <mxCell id="11oFcdoYTNU60L-B-zhg-21" value="&lt;div style=&quot;text-align: left&quot;&gt;&lt;span&gt;super : Transaction&lt;/span&gt;&lt;/div&gt;&lt;div style=&quot;text-align: left&quot;&gt;&lt;br&gt;&lt;/div&gt;&lt;div style=&quot;text-align: left&quot;&gt;&lt;span&gt;Account&lt;/span&gt;&lt;/div&gt;" style="text;html=1;strokeColor=none;fillColor=none;align=center;verticalAlign=middle;whiteSpace=wrap;rounded=0;" parent="1" vertex="1">
          <mxGeometry x="290" y="420" width="166" height="140" as="geometry" />
        </mxCell>
        <mxCell id="11oFcdoYTNU60L-B-zhg-22" value="" style="rounded=0;whiteSpace=wrap;html=1;" parent="1" vertex="1">
          <mxGeometry x="790" y="370" width="300" height="240" as="geometry" />
        </mxCell>
        <mxCell id="11oFcdoYTNU60L-B-zhg-23" value="&lt;h1&gt;Transfer&lt;/h1&gt;" style="text;html=1;fillColor=none;spacing=5;spacingTop=-20;whiteSpace=wrap;overflow=hidden;rounded=0;strokeColor=#000000;" parent="1" vertex="1">
          <mxGeometry x="790" y="370" width="300" height="50" as="geometry" />
        </mxCell>
        <mxCell id="11oFcdoYTNU60L-B-zhg-24" value="&lt;font style=&quot;font-size: 15px&quot;&gt;know another_account&lt;br&gt;can transfer money&lt;br&gt;&lt;/font&gt;" style="html=1;strokeColor=#000000;align=left;" parent="1" vertex="1">
          <mxGeometry x="790" y="420" width="160" height="190" as="geometry" />
        </mxCell>
        <mxCell id="11oFcdoYTNU60L-B-zhg-25" value="&lt;div style=&quot;text-align: left&quot;&gt;&lt;span&gt;super : Transaction&lt;/span&gt;&lt;/div&gt;&lt;div style=&quot;text-align: left&quot;&gt;&lt;br&gt;&lt;/div&gt;&lt;div style=&quot;text-align: left&quot;&gt;&lt;span&gt;Account&lt;/span&gt;&lt;/div&gt;" style="text;html=1;strokeColor=none;fillColor=none;align=center;verticalAlign=middle;whiteSpace=wrap;rounded=0;" parent="1" vertex="1">
          <mxGeometry x="954" y="420" width="136" height="140" as="geometry" />
        </mxCell>
        <mxCell id="11oFcdoYTNU60L-B-zhg-26" value="" style="rounded=0;whiteSpace=wrap;html=1;" parent="1" vertex="1">
          <mxGeometry x="800" y="110" width="246" height="240" as="geometry" />
        </mxCell>
        <mxCell id="11oFcdoYTNU60L-B-zhg-27" value="&lt;h1&gt;BalanceInquiry&lt;/h1&gt;" style="text;html=1;fillColor=none;spacing=5;spacingTop=-20;whiteSpace=wrap;overflow=hidden;rounded=0;strokeColor=#000000;" parent="1" vertex="1">
          <mxGeometry x="800" y="110" width="246" height="50" as="geometry" />
        </mxCell>
        <mxCell id="11oFcdoYTNU60L-B-zhg-28" value="&lt;font style=&quot;font-size: 15px&quot;&gt;can quiry balance&lt;br&gt;&lt;/font&gt;" style="html=1;strokeColor=#000000;align=left;" parent="1" vertex="1">
          <mxGeometry x="800" y="160" width="146" height="190" as="geometry" />
        </mxCell>
        <mxCell id="11oFcdoYTNU60L-B-zhg-29" value="Account" style="text;html=1;strokeColor=none;fillColor=none;align=left;verticalAlign=middle;whiteSpace=wrap;rounded=0;" parent="1" vertex="1">
          <mxGeometry x="946" y="160" width="100" height="90" as="geometry" />
        </mxCell>
      </root>
    </mxGraphModel>
  </diagram>
</mxfile>
